<mxfile host="app.diagrams.net" agent="Mozilla/5.0 (Windows NT 10.0; Win64; x64) AppleWebKit/537.36 (KHTML, like Gecko) Chrome/126.0.0.0 Safari/537.36 OPR/112.0.0.0 (Edition std-1)" version="24.7.10">
  <diagram name="Página-1" id="u46SL6Dhb6btVClSM_Iv">
    <mxGraphModel grid="1" page="1" gridSize="10" guides="1" tooltips="1" connect="1" arrows="1" fold="1" pageScale="1" pageWidth="827" pageHeight="1169" math="0" shadow="0">
      <root>
        <mxCell id="0" />
        <mxCell id="1" parent="0" />
        <mxCell id="LY48QOHR4tIlIOUWpxVT-6" value="" style="rounded=0;whiteSpace=wrap;html=1;" vertex="1" parent="1">
          <mxGeometry x="180" y="180" width="420" height="250" as="geometry" />
        </mxCell>
        <mxCell id="LY48QOHR4tIlIOUWpxVT-12" style="edgeStyle=none;rounded=0;orthogonalLoop=1;jettySize=auto;html=1;exitX=0.5;exitY=0.5;exitDx=0;exitDy=0;exitPerimeter=0;entryX=0;entryY=0.5;entryDx=0;entryDy=0;" edge="1" parent="1" source="LY48QOHR4tIlIOUWpxVT-1" target="LY48QOHR4tIlIOUWpxVT-7">
          <mxGeometry relative="1" as="geometry" />
        </mxCell>
        <mxCell id="LY48QOHR4tIlIOUWpxVT-1" value="Usuario Admin" style="shape=umlActor;verticalLabelPosition=bottom;verticalAlign=top;html=1;outlineConnect=0;" vertex="1" parent="1">
          <mxGeometry x="100" y="270" width="30" height="60" as="geometry" />
        </mxCell>
        <mxCell id="LY48QOHR4tIlIOUWpxVT-10" style="edgeStyle=none;rounded=0;orthogonalLoop=1;jettySize=auto;html=1;exitX=1;exitY=0.5;exitDx=0;exitDy=0;entryX=0;entryY=0.5;entryDx=0;entryDy=0;" edge="1" parent="1" source="LY48QOHR4tIlIOUWpxVT-7" target="LY48QOHR4tIlIOUWpxVT-8">
          <mxGeometry relative="1" as="geometry" />
        </mxCell>
        <mxCell id="LY48QOHR4tIlIOUWpxVT-13" value="&amp;lt;&amp;lt;include&amp;gt;&amp;gt;" style="edgeLabel;html=1;align=center;verticalAlign=middle;resizable=0;points=[];" connectable="0" vertex="1" parent="LY48QOHR4tIlIOUWpxVT-10">
          <mxGeometry x="-0.0216" y="2" relative="1" as="geometry">
            <mxPoint as="offset" />
          </mxGeometry>
        </mxCell>
        <mxCell id="LY48QOHR4tIlIOUWpxVT-11" style="edgeStyle=none;rounded=0;orthogonalLoop=1;jettySize=auto;html=1;exitX=1;exitY=0.5;exitDx=0;exitDy=0;entryX=0;entryY=0.5;entryDx=0;entryDy=0;" edge="1" parent="1" source="LY48QOHR4tIlIOUWpxVT-7" target="LY48QOHR4tIlIOUWpxVT-9">
          <mxGeometry relative="1" as="geometry" />
        </mxCell>
        <mxCell id="LY48QOHR4tIlIOUWpxVT-14" value="&amp;lt;&amp;lt;include&amp;gt;&amp;gt;" style="edgeLabel;html=1;align=center;verticalAlign=middle;resizable=0;points=[];" connectable="0" vertex="1" parent="LY48QOHR4tIlIOUWpxVT-11">
          <mxGeometry x="-0.0703" y="-1" relative="1" as="geometry">
            <mxPoint y="1" as="offset" />
          </mxGeometry>
        </mxCell>
        <mxCell id="LY48QOHR4tIlIOUWpxVT-7" value="Rechazar aviso de la cancha" style="ellipse;whiteSpace=wrap;html=1;" vertex="1" parent="1">
          <mxGeometry x="200" y="260" width="120" height="80" as="geometry" />
        </mxCell>
        <mxCell id="LY48QOHR4tIlIOUWpxVT-8" value="Evaluar información de la cancha" style="ellipse;whiteSpace=wrap;html=1;" vertex="1" parent="1">
          <mxGeometry x="450" y="210" width="120" height="80" as="geometry" />
        </mxCell>
        <mxCell id="LY48QOHR4tIlIOUWpxVT-9" value="Proveer razones del rechazo" style="ellipse;whiteSpace=wrap;html=1;" vertex="1" parent="1">
          <mxGeometry x="450" y="300" width="120" height="80" as="geometry" />
        </mxCell>
      </root>
    </mxGraphModel>
  </diagram>
</mxfile>
